<svg id="visual" viewBox="0 0 900 600" width="900" height="600" xmlns="http://www.w3.org/2000/svg" xmlns:xlink="http://www.w3.org/1999/xlink" version="1.1"><rect x="0" y="0" width="900" height="600" fill="#001122"></rect><defs><linearGradient id="grad1_0" x1="33.3%" y1="100%" x2="100%" y2="0%"><stop offset="20%" stop-color="#001122" stop-opacity="1"></stop><stop offset="80%" stop-color="#001122" stop-opacity="1"></stop></linearGradient></defs><defs><linearGradient id="grad2_0" x1="0%" y1="100%" x2="66.7%" y2="0%"><stop offset="20%" stop-color="#001122" stop-opacity="1"></stop><stop offset="80%" stop-color="#001122" stop-opacity="1"></stop></linearGradient></defs><g transform="translate(900, 600)"><path d="M-486.7 0C-465.2 -58.8 -443.7 -117.5 -420.4 -174.1C-397.1 -230.7 -372 -285.1 -333.8 -333.8C-295.5 -382.4 -244.1 -425.2 -186.3 -449.7C-128.4 -474.2 -64.2 -480.5 0 -486.7L0 0Z" fill="#1483de"></path></g><g transform="translate(0, 0)"><path d="M486.7 0C453.6 55.8 420.4 111.7 392.6 162.6C364.9 213.6 342.4 259.6 311.1 311.1C279.8 362.6 239.6 419.5 186.3 449.7C132.9 479.9 66.5 483.3 0 486.7L0 0Z" fill="#1483de"></path></g></svg>